<svg width="20" height="20" viewBox="0 0 20 20" fill="none" xmlns="http://www.w3.org/2000/svg">
<path d="M4.39095 8.12507C4.38991 7.38383 4.5356 6.64971 4.81961 5.96504C5.10361 5.28036 5.52033 4.65866 6.04573 4.13579C6.57113 3.61291 7.19482 3.1992 7.88085 2.91849C8.56689 2.63778 9.3017 2.49563 10.0429 2.50023C13.1359 2.52322 15.6098 5.09408 15.6098 8.19569V8.75007C15.6098 11.5482 16.1953 13.1719 16.7109 14.0593C16.7664 14.1541 16.796 14.2619 16.7965 14.3718C16.7971 14.4817 16.7687 14.5898 16.7142 14.6852C16.6597 14.7806 16.581 14.86 16.486 14.9153C16.391 14.9705 16.2831 14.9998 16.1732 15.0001H3.82693C3.71703 14.9998 3.60914 14.9705 3.51415 14.9152C3.41917 14.8599 3.34045 14.7806 3.28592 14.6852C3.2314 14.5897 3.20302 14.4816 3.20362 14.3717C3.20423 14.2618 3.23381 14.154 3.28938 14.0592C3.80526 13.1717 4.39095 11.548 4.39095 8.75007L4.39095 8.12507Z" stroke="#798693" stroke-width="1.25" stroke-linecap="round" stroke-linejoin="round"/>
<path d="M7.5 15V15.625C7.5 16.288 7.76339 16.9239 8.23223 17.3928C8.70107 17.8616 9.33696 18.125 10 18.125C10.663 18.125 11.2989 17.8616 11.7678 17.3928C12.2366 16.9239 12.5 16.288 12.5 15.625V15" fill="#798693"/>
<path d="M7.5 15V15.625C7.5 16.288 7.76339 16.9239 8.23223 17.3928C8.70107 17.8616 9.33696 18.125 10 18.125C10.663 18.125 11.2989 17.8616 11.7678 17.3928C12.2366 16.9239 12.5 16.288 12.5 15.625V15" stroke="#798693" stroke-width="1.25" stroke-linecap="round" stroke-linejoin="round"/>
</svg>
