<svg width="16" height="16" viewBox="0 0 16 16" fill="none" xmlns="http://www.w3.org/2000/svg">
<path d="M9.61835 6.98363L7.95788 9.43573L5.50247 11.8789C4.58929 10.7183 3.5921 9.59398 2.98413 8.23413L4.30763 6.20667L6.33754 4.24829C5.6591 5.08676 5.70976 6.31995 6.48954 7.09973C7.32379 7.93398 8.67604 7.93398 9.51026 7.09973C9.5477 7.06237 9.58376 7.02365 9.61835 6.98363Z" fill="#ECB72B"/>
<path d="M9.65685 6.93754C10.3412 6.09866 10.2927 4.86122 9.51035 4.07935C8.6761 3.2451 7.32385 3.2451 6.48963 4.07935C6.45493 4.11409 6.42143 4.15 6.38916 4.187L7.7895 1.91054L9.68935 0.260254C11.1083 0.709441 12.282 1.7096 12.9596 3.00954L11.5736 5.24441L9.65685 6.93754Z" fill="#5085F7"/>
<path d="M6.33756 4.24843L2.98406 8.23433C2.65146 7.49111 2.43524 6.67755 2.41293 5.74905C2.41124 5.69602 2.4104 5.64296 2.4104 5.58989C2.4104 4.22371 2.90056 2.97149 3.71496 2.00049L6.33756 4.24843Z" fill="#DA2F2A"/>
<path d="M6.33753 4.24841L3.71484 2.00031C4.74034 0.777656 6.27922 0 8.00003 0C8.58894 0 9.15656 0.091125 9.68956 0.26L6.33753 4.24841Z" fill="#4274EB"/>
<path d="M13.5897 5.58958C13.5897 4.65899 13.3622 3.78149 12.9599 3.00964L5.50244 11.8792C6.34972 12.957 7.12391 14.0662 7.44566 15.4246C7.45597 15.4681 7.46707 15.519 7.47888 15.5761C7.59554 16.1413 8.40482 16.1413 8.52147 15.5761C8.53328 15.519 8.54438 15.4681 8.55469 15.4246C9.41244 11.803 13.4862 9.95221 13.5873 5.74908C13.5887 5.69608 13.5897 5.64293 13.5897 5.58958Z" fill="#60A850"/>
</svg>
