<svg width="21" height="20" viewBox="0 0 21 20" fill="none" xmlns="http://www.w3.org/2000/svg">
<path d="M17.591 8.10157L11.3405 2.41909C11.1109 2.20886 10.8109 2.09226 10.4996 2.09229C10.1883 2.09231 9.88827 2.20894 9.65871 2.4192L3.40925 8.10153C3.28049 8.21879 3.1776 8.3616 3.10715 8.52085C3.0367 8.68011 3.00024 8.8523 3.00008 9.02645V16.2214C2.9965 16.5355 3.10795 16.8401 3.31342 17.0778C3.43047 17.2108 3.57462 17.3173 3.73619 17.3901C3.89776 17.4629 4.07302 17.5004 4.25024 17.4999H7.99734C8.1631 17.4999 8.32207 17.4341 8.43928 17.3169C8.55649 17.1996 8.62234 17.0407 8.62234 16.8749V13.1243C8.62234 12.9586 8.68819 12.7996 8.8054 12.6824C8.92261 12.5652 9.08158 12.4993 9.24734 12.4993H11.7473C11.9131 12.4993 12.0721 12.5652 12.1893 12.6824C12.3065 12.7996 12.3723 12.9586 12.3723 13.1243V16.8749C12.3723 17.0407 12.4382 17.1996 12.5554 17.3169C12.6726 17.4341 12.8316 17.4999 12.9973 17.4999H16.7518C16.9572 17.5026 17.1598 17.4527 17.3404 17.3549C17.5398 17.2473 17.7063 17.0878 17.8224 16.8933C17.9386 16.6988 18 16.4765 18.0001 16.2499V9.02648C17.9999 8.85235 17.9635 8.68016 17.893 8.52091C17.8226 8.36166 17.7197 8.21884 17.591 8.10157Z" fill="#0080F9"/>
</svg>
