<svg width="21" height="20" viewBox="0 0 21 20" fill="none" xmlns="http://www.w3.org/2000/svg">
<path d="M17.3748 9.37506H3.62476C3.459 9.37506 3.30002 9.44091 3.18281 9.55812C3.0656 9.67533 2.99976 9.8343 2.99976 10.0001C2.99976 10.1658 3.0656 10.3248 3.18281 10.442C3.30002 10.5592 3.459 10.6251 3.62476 10.6251H17.3748C17.5405 10.6251 17.6995 10.5592 17.8167 10.442C17.9339 10.3248 17.9998 10.1658 17.9998 10.0001C17.9998 9.8343 17.9339 9.67533 17.8167 9.55812C17.6995 9.44091 17.5405 9.37506 17.3748 9.37506Z" fill="#798693"/>
<path d="M3.62476 5.62506H17.3748C17.5405 5.62506 17.6995 5.55921 17.8167 5.442C17.9339 5.32479 17.9998 5.16582 17.9998 5.00006C17.9998 4.8343 17.9339 4.67533 17.8167 4.55812C17.6995 4.44091 17.5405 4.37506 17.3748 4.37506H3.62476C3.459 4.37506 3.30002 4.44091 3.18281 4.55812C3.0656 4.67533 2.99976 4.8343 2.99976 5.00006C2.99976 5.16582 3.0656 5.32479 3.18281 5.442C3.30002 5.55921 3.459 5.62506 3.62476 5.62506Z" fill="#798693"/>
<path d="M17.3748 14.3751H3.62476C3.459 14.3751 3.30002 14.4409 3.18281 14.5581C3.0656 14.6753 2.99976 14.8343 2.99976 15.0001C2.99976 15.1658 3.0656 15.3248 3.18281 15.442C3.30002 15.5592 3.459 15.6251 3.62476 15.6251H17.3748C17.5405 15.6251 17.6995 15.5592 17.8167 15.442C17.9339 15.3248 17.9998 15.1658 17.9998 15.0001C17.9998 14.8343 17.9339 14.6753 17.8167 14.5581C17.6995 14.4409 17.5405 14.3751 17.3748 14.3751Z" fill="#798693"/>
</svg>
